<?xml version="1.0" ?><!DOCTYPE svg  PUBLIC '-//W3C//DTD SVG 1.1//EN'  'http://www.w3.org/Graphics/SVG/1.1/DTD/svg11.dtd'><svg enable-background="new 0 0 32 32" height="32px" id="fill_x5F_03" version="1.1" viewBox="0 0 32 32" width="32px" xml:space="preserve" xmlns="http://www.w3.org/2000/svg" xmlns:xlink="http://www.w3.org/1999/xlink"><path clip-rule="evenodd" d="M28.415,11.32c3.607,0.093,4.572,1.751,2.531,3.848l-6.911,5.297  l1.958,6.598c0.047,0.222,0.099,0.442,0.163,0.657c1.023,3.449-0.245,4.882-2.855,3.607L16,26.302l-7.302,5.024  c-2.609,1.274-3.879-0.158-2.854-3.607c0.063-0.215,0.115-0.436,0.162-0.658l1.959-6.597l-6.911-5.296  c-2.041-2.098-1.076-3.756,2.531-3.849c0.438-0.011,0.879-0.064,1.32-0.145l6.128-0.157l2.188-6.19  c0.11-0.238,0.209-0.479,0.295-0.724c1.366-3.864,3.601-3.864,4.966,0c0.087,0.244,0.186,0.485,0.295,0.724l2.188,6.19l6.128,0.157  C27.535,11.255,27.978,11.309,28.415,11.32z" fill="#010101" fill-rule="evenodd"/></svg>