<?xml version="1.0" ?><svg data-name="Layer 1" id="Layer_1" viewBox="0 0 64 64" xmlns="http://www.w3.org/2000/svg"><path d="M39,7.867l4.628-.578A3,3,0,0,1,45.962,8H60V4H39Z"/><path d="M46.972,12H60V10H46.972c.008.089.028.176.028.266v1.468C47,11.824,46.98,11.911,46.972,12Z"/><path d="M27.338,9.516a.987.987,0,0,0-.338.75v1.468a1,1,0,0,0,1.124.993L33,12.117V9.883l-4.876-.61A1.008,1.008,0,0,0,27.338,9.516Z"/><rect height="44" width="3" x="4" y="16"/><rect height="44" width="2" x="9" y="16"/><path d="M8.816,14A3,3,0,0,0,6,12H5a1,1,0,0,0,0,2Z"/><path d="M40.707,23.707A1,1,0,0,1,40,24a.98.98,0,0,1-.2-.021,1,1,0,0,1-.728-.607L39,23.193v20.22A7,7,0,0,1,45,40h5a4,4,0,0,1,4,4,3.959,3.959,0,0,1-.556,2H60V14H45.963A3,3,0,0,1,44,14.734a2.9,2.9,0,0,1-.372-.023l-2.86-.357,3.939,3.939a1,1,0,0,1,0,1.414Z"/><rect height="44" width="3" x="13" y="16"/><path d="M22,46h2.556A3.959,3.959,0,0,1,24,44a4,4,0,0,1,4-4h5V23.193l-.071.179a1,1,0,0,1-.728.607A.98.98,0,0,1,32,24a1,1,0,0,1-.707-.293l-4-4a1,1,0,0,1,0-1.414l3.939-3.939-2.86.357a2.9,2.9,0,0,1-.372.023A3,3,0,0,1,26.037,14H22Z"/><rect height="12" width="15" x="18" y="48"/><path d="M22,12h3.028c-.008-.089-.028-.176-.028-.266V10.266c0-.09.02-.177.028-.266H22Z"/><path d="M22,8h4.038a3,3,0,0,1,2.334-.711L33,7.867V4H22Z"/><rect height="12" width="8" x="35" y="48"/><rect height="12" width="15" x="45" y="48"/><path d="M52,44a2,2,0,0,0-2-2H45a5.009,5.009,0,0,0-4.9,4H50A2,2,0,0,0,52,44Z"/><path d="M15,12H14a3,3,0,0,0-2.816,2H15a1,1,0,0,0,0-2Z"/><path d="M28,42a2,2,0,0,0,0,4h9.9A5.009,5.009,0,0,0,33,42Z"/><polygon points="37.477 14 40.365 21.221 42.586 19 37.585 14 37.477 14"/><path d="M39,12.117l4.876.61A1,1,0,0,0,45,11.734V10.266a1,1,0,0,0-1.124-.993L39,9.883Z"/><rect height="4" width="2" x="35" y="4"/><path d="M35,40.3a6.957,6.957,0,0,1,2,.969V18.193l-1-2.5-1,2.5Z"/><rect height="2" width="2" x="35" y="10"/><polygon points="31.635 21.221 34.523 14 34.415 14 29.414 19 31.635 21.221"/></svg>