<?xml version="1.0" ?><!DOCTYPE svg  PUBLIC '-//W3C//DTD SVG 1.1//EN'  'http://www.w3.org/Graphics/SVG/1.1/DTD/svg11.dtd'><svg enable-background="new 0 0 128 128" height="128px" id="Layer_1" version="1.1" viewBox="0 0 128 128" width="128px" xml:space="preserve" xmlns="http://www.w3.org/2000/svg" xmlns:xlink="http://www.w3.org/1999/xlink"><path d="M74.459,35.043l25.854-25.854c0.616-0.614,0.616-1.612,0-2.228c-0.615-0.615-1.612-0.615-2.228,0  L72.299,32.749C73.111,33.421,73.829,34.197,74.459,35.043z" fill="#414042"/><path d="M53.539,35.043c0.629-0.846,1.35-1.622,2.162-2.294L29.915,6.962c-0.615-0.615-1.612-0.615-2.228,0  s-0.615,1.613,0,2.228L53.539,35.043z" fill="#414042"/><path d="M73.778,41.377c-0.218-1.494-0.759-2.884-1.567-4.085c-0.591-0.878-1.325-1.649-2.16-2.296  c-1.674-1.302-3.771-2.085-6.051-2.085c-2.281,0-4.377,0.783-6.053,2.085c-0.833,0.646-1.567,1.418-2.158,2.296  c-0.811,1.201-1.352,2.591-1.569,4.085H73.778z" fill="#414042"/><path d="M107.4,45.578H20.598c-3.814,0-6.92,3.105-6.92,6.922v62.078c0,3.816,3.105,6.922,6.92,6.922H107.4  c3.816,0,6.922-3.105,6.922-6.922V52.5C114.322,48.684,111.217,45.578,107.4,45.578z M83.222,105.69  c0,4.262-3.456,7.719-7.719,7.719h-44.3c-4.263,0-7.719-3.457-7.719-7.719V61.39c0-4.264,3.456-7.72,7.719-7.72h44.3  c4.263,0,7.719,3.456,7.719,7.72V105.69z M99.197,103.492c-1.58,0-2.861-1.282-2.861-2.864s1.281-2.863,2.861-2.863  c1.583,0,2.867,1.281,2.863,2.863C102.061,102.21,100.78,103.492,99.197,103.492z M99.197,89.958c-1.58,0-2.861-1.282-2.861-2.863  s1.281-2.863,2.861-2.863c1.583,0,2.867,1.282,2.863,2.863C102.061,88.676,100.78,89.958,99.197,89.958z M99.199,70.396  c-2.999,0-5.432-2.431-5.432-5.433c0-3.001,2.433-5.432,5.432-5.432s5.432,2.431,5.432,5.432  C104.631,67.965,102.198,70.396,99.199,70.396z" fill="#414042"/></svg>